<svg width="50" height="50" viewBox="0 0 50 50" fill="none" xmlns="http://www.w3.org/2000/svg">
<path d="M25 15.625V25" stroke="#2C2C2C" stroke-width="2" stroke-linecap="round" stroke-linejoin="round"/>
<path d="M33.125 29.6875L25 25" stroke="#2C2C2C" stroke-width="2" stroke-linecap="round" stroke-linejoin="round"/>
<path d="M14.0234 19.4724H6.21094V11.6599" stroke="#2C2C2C" stroke-width="2" stroke-linecap="round" stroke-linejoin="round"/>
<path d="M12.8516 37.1484C15.2547 39.5536 18.3172 41.1919 21.6516 41.8562C24.9861 42.5205 28.4426 42.181 31.5841 40.8805C34.7255 39.5801 37.4106 37.3771 39.2998 34.5503C41.189 31.7236 42.1974 28.4 42.1974 25C42.1974 21.6 41.189 18.2765 39.2998 15.4497C37.4106 12.6229 34.7255 10.42 31.5841 9.11949C28.4426 7.81902 24.9861 7.47947 21.6516 8.14379C18.3172 8.80811 15.2547 10.4465 12.8516 12.8516L6.21094 19.4727" stroke="#2C2C2C" stroke-width="2" stroke-linecap="round" stroke-linejoin="round"/>
</svg>
