<svg width="30" height="30" viewBox="0 0 30 30" fill="none" xmlns="http://www.w3.org/2000/svg">
<path d="M15 9.375V15" stroke="black" stroke-width="2" stroke-linecap="round" stroke-linejoin="round"/>
<path d="M19.875 17.8125L15 15" stroke="black" stroke-width="2" stroke-linecap="round" stroke-linejoin="round"/>
<path d="M8.41407 11.6836H3.72657V6.99609" stroke="black" stroke-width="2" stroke-linecap="round" stroke-linejoin="round"/>
<path d="M7.71095 22.2891C9.15284 23.7321 10.9903 24.7151 12.991 25.1137C14.9917 25.5123 17.0656 25.3086 18.9504 24.5283C20.8353 23.748 22.4464 22.4263 23.5799 20.7302C24.7134 19.0341 25.3185 17.04 25.3185 15C25.3185 12.96 24.7134 10.9659 23.5799 9.26981C22.4464 7.57375 20.8353 6.25197 18.9504 5.47169C17.0656 4.69141 14.9917 4.48768 12.991 4.88627C10.9903 5.28486 9.15284 6.26787 7.71095 7.71094L3.72657 11.6836" stroke="black" stroke-width="2" stroke-linecap="round" stroke-linejoin="round"/>
</svg>
