<svg width="50" height="50" viewBox="0 0 50 50" fill="none" xmlns="http://www.w3.org/2000/svg">
<path d="M18.1055 42.1873H9.37501C8.96061 42.1873 8.56318 42.0227 8.27016 41.7297C7.97713 41.4367 7.81251 41.0392 7.81251 40.6248V31.8944C7.8118 31.6915 7.85111 31.4904 7.92819 31.3027C8.00528 31.1151 8.11862 30.9444 8.26173 30.8006L31.6992 7.36311C31.8446 7.21548 32.0179 7.09824 32.209 7.01821C32.4002 6.93818 32.6053 6.89697 32.8125 6.89697C33.0197 6.89697 33.2248 6.93818 33.416 7.01821C33.6071 7.09824 33.7804 7.21548 33.9258 7.36311L42.6367 16.074C42.7844 16.2194 42.9016 16.3927 42.9816 16.5839C43.0617 16.775 43.1029 16.9801 43.1029 17.1873C43.1029 17.3945 43.0617 17.5997 42.9816 17.7908C42.9016 17.9819 42.7844 18.1552 42.6367 18.3006L19.1992 41.7381C19.0554 41.8812 18.8848 41.9946 18.6971 42.0716C18.5094 42.1487 18.3084 42.188 18.1055 42.1873Z" stroke="white" stroke-width="2" stroke-linecap="round" stroke-linejoin="round"/>
<path d="M26.5625 12.5L37.5 23.4375" stroke="white" stroke-width="2" stroke-linecap="round" stroke-linejoin="round"/>
</svg>
