<svg width="32" height="32" viewBox="0 0 32 32" fill="none" xmlns="http://www.w3.org/2000/svg">
<path d="M6 5L26 27" stroke="#2C2C2C" stroke-width="2" stroke-linecap="round" stroke-linejoin="round"/>
<path d="M19.3625 19.7C18.4449 20.5406 17.2444 21.0048 16 21C14.9908 20.9999 14.0053 20.6945 13.173 20.1238C12.3407 19.5531 11.7006 18.7439 11.3368 17.8026C10.973 16.8613 10.9025 15.8319 11.1347 14.8498C11.3668 13.8677 11.8907 12.9788 12.6375 12.3" stroke="#2C2C2C" stroke-width="2" stroke-linecap="round" stroke-linejoin="round"/>
<path d="M9.25 8.57495C7.19544 9.6123 5.61964 11.0189 4.47029 12.3288C2.60635 14.4532 2.60823 17.5461 4.47265 19.6701C6.65787 22.1595 10.3821 25 16 25C18.3432 25.019 20.6572 24.4791 22.75 23.425" stroke="#2C2C2C" stroke-width="2" stroke-linecap="round" stroke-linejoin="round"/>
<path d="M26.075 21.1375C26.6175 20.6522 27.0996 20.1565 27.5238 19.6738C29.3916 17.5483 29.3909 14.4516 27.5236 12.3257C25.3379 9.83728 21.6147 7.00003 16 7.00003C15.133 6.99832 14.2675 7.0694 13.4125 7.21253" stroke="#2C2C2C" stroke-width="2" stroke-linecap="round" stroke-linejoin="round"/>
<path d="M16.9375 11.0874C18.0008 11.2889 18.9697 11.8307 19.6981 12.6312C20.4264 13.4317 20.8746 14.4473 20.975 15.5249" stroke="#2C2C2C" stroke-width="2" stroke-linecap="round" stroke-linejoin="round"/>
</svg>
