<svg width="60" height="60" viewBox="0 0 60 60" fill="none" xmlns="http://www.w3.org/2000/svg">
<path d="M56.4141 28.5472L50.625 31.43L43.125 17.0862L48.9844 14.1565C49.4198 13.9346 49.9254 13.8938 50.3908 14.0431C50.8562 14.1923 51.2437 14.5196 51.4688 14.9534L57.2344 25.9925C57.3513 26.2135 57.4228 26.4556 57.4448 26.7046C57.4668 26.9536 57.4387 27.2046 57.3623 27.4426C57.2858 27.6806 57.1626 27.901 56.9997 28.0907C56.8369 28.2804 56.6378 28.4356 56.4141 28.5472V28.5472Z" stroke="white" stroke-width="2" stroke-linecap="round" stroke-linejoin="round"/>
<path d="M9.37491 31.1957L3.58584 28.2894C3.36294 28.1802 3.16428 28.0272 3.00168 27.8397C2.83907 27.6521 2.71585 27.4338 2.63932 27.1976C2.56279 26.9615 2.53453 26.7123 2.55621 26.4651C2.57789 26.2178 2.64908 25.9774 2.76553 25.7582L8.53116 14.7191C8.7567 14.2856 9.14259 13.9572 9.60663 13.804C10.0707 13.6508 10.5762 13.6848 11.0155 13.8988L16.8749 16.8285L9.37491 31.1957Z" stroke="white" stroke-width="2" stroke-linecap="round" stroke-linejoin="round"/>
<path d="M50.625 31.4302L46.875 35.8364L38.25 44.4614C38.0149 44.6812 37.7301 44.8408 37.4199 44.9266C37.1097 45.0123 36.7833 45.0216 36.4688 44.9536L22.875 41.5552C22.6267 41.486 22.3953 41.3663 22.1953 41.2036L9.375 31.1958" stroke="white" stroke-width="2" stroke-linecap="round" stroke-linejoin="round"/>
<path d="M46.875 35.8355L36.5625 28.3355L33.5625 30.5855C32.2628 31.5555 30.6844 32.0796 29.0625 32.0796C27.4407 32.0796 25.8623 31.5555 24.5625 30.5855L23.2969 29.6245C23.0829 29.4618 22.9059 29.2555 22.7776 29.0192C22.6493 28.783 22.5726 28.5222 22.5527 28.2541C22.5327 27.986 22.5699 27.7167 22.6619 27.464C22.7538 27.2114 22.8984 26.9812 23.086 26.7886L32.2735 17.6245C32.446 17.4528 32.6508 17.3168 32.876 17.2243C33.1012 17.1318 33.3425 17.0846 33.586 17.0855H43.125" stroke="white" stroke-width="2" stroke-linecap="round" stroke-linejoin="round"/>
<path d="M17.0156 16.828L29.0391 13.3124C29.4663 13.1899 29.9231 13.2231 30.3281 13.4061L38.4375 17.0858" stroke="white" stroke-width="2" stroke-linecap="round" stroke-linejoin="round"/>
<path d="M26.25 49.8984L19.1953 48.1172C18.9078 48.0522 18.6416 47.9151 18.4219 47.7188L13.125 43.125" stroke="white" stroke-width="2" stroke-linecap="round" stroke-linejoin="round"/>
</svg>
