<svg width="50" height="50" viewBox="0 0 50 50" fill="none" xmlns="http://www.w3.org/2000/svg">
<path d="M25 26.5625C28.4518 26.5625 31.25 23.7643 31.25 20.3125C31.25 16.8607 28.4518 14.0625 25 14.0625C21.5482 14.0625 18.75 16.8607 18.75 20.3125C18.75 23.7643 21.5482 26.5625 25 26.5625Z" stroke="#2C2C2C" stroke-width="2" stroke-linecap="round" stroke-linejoin="round"/>
<path d="M40.625 20.3125C40.625 34.375 25 45.3125 25 45.3125C25 45.3125 9.375 34.375 9.375 20.3125C9.375 16.1685 11.0212 12.1942 13.9515 9.26396C16.8817 6.3337 20.856 4.6875 25 4.6875C29.144 4.6875 33.1183 6.3337 36.0485 9.26396C38.9788 12.1942 40.625 16.1685 40.625 20.3125Z" stroke="#2C2C2C" stroke-width="2" stroke-linecap="round" stroke-linejoin="round"/>
</svg>
