<svg width="42" height="43" viewBox="0 0 42 43" fill="none" xmlns="http://www.w3.org/2000/svg">
<path d="M28.5511 6.13818V21.6921L23.3664 17.8036L18.1818 21.6921V6.13818" stroke="black" stroke-width="2" stroke-linecap="round" stroke-linejoin="round"/>
<path d="M7.81247 35.9499C7.81033 35.4387 7.90944 34.9321 8.1041 34.4594C8.29876 33.9866 8.5851 33.5571 8.94661 33.1956C9.30811 32.8341 9.73763 32.5477 10.2104 32.3531C10.6831 32.1584 11.1897 32.0593 11.701 32.0615H33.7357V6.13822H11.701C11.1897 6.13607 10.6831 6.23519 10.2104 6.42984C9.73763 6.6245 9.30811 6.91084 8.94661 7.27235C8.5851 7.63386 8.29876 8.06337 8.1041 8.53611C7.90944 9.00885 7.81033 9.51546 7.81247 10.0267V35.9499Z" stroke="black" stroke-width="2" stroke-linecap="round" stroke-linejoin="round"/>
<path d="M7.81244 35.95V37.2461H31.1434" stroke="black" stroke-width="2" stroke-linecap="round" stroke-linejoin="round"/>
</svg>
